<?xml version="1.0" encoding="UTF-8"?>
<svg xmlns="http://www.w3.org/2000/svg" xmlns:xlink="http://www.w3.org/1999/xlink" width="512px" height="512px" viewBox="0 0 512 512" version="1.1">
<g id="surface1">
<path style=" stroke:none;fill-rule:nonzero;fill:rgb(90.588235%,32.54902%,20%);fill-opacity:1;" d="M 225.226562 81.582031 C 237.085938 71.027344 253.363281 64.808594 269.242188 68.386719 C 280.867188 70.140625 289.28125 78.96875 299.050781 84.558594 C 312.347656 87.195312 327.628906 88.109375 337.214844 99.109375 C 348.96875 109.425781 351.398438 125.464844 353.855469 140.015625 C 359.835938 150.597656 370.023438 159.425781 370.9375 172.304688 C 373.839844 189.570312 362.894531 204.09375 353.984375 217.546875 C 351.347656 229.746094 350.40625 243.199219 342.097656 253.285156 C 332.851562 265.429688 317.492188 271.125 302.65625 272.117188 C 295.3125 272.222656 290.296875 278.152344 284.527344 281.757812 C 278.777344 286.039062 271.515625 288.207031 266.371094 293.222656 C 261.878906 302.835938 264.464844 313.78125 266.058594 323.761719 C 276.402344 323.34375 284.082031 315.847656 292.570312 310.933594 C 313.339844 298.160156 339.671875 296.984375 362.605469 303.910156 C 368.089844 305.839844 375.953125 309.105469 375.222656 316.1875 C 373.472656 324.101562 367.386719 330.214844 361.980469 335.933594 C 347.898438 350.433594 328.332031 358.636719 308.375 360.671875 C 294.320312 361.796875 280.921875 355.65625 266.867188 356.101562 C 266.789062 355.082031 266.65625 353.070312 266.578125 352.050781 C 261.824219 373.628906 266.214844 395.859375 262.949219 417.515625 C 261.902344 419.082031 259.789062 422.242188 258.714844 423.8125 C 256.546875 417.175781 254.511719 410.488281 252.109375 403.90625 C 233.980469 402.757812 215.117188 400.847656 199.496094 390.636719 C 181.8125 378.695312 165.980469 361.195312 162.585938 339.433594 C 161.359375 334.339844 165.304688 330.398438 170.082031 329.691406 C 185.183594 326.84375 200.671875 330.917969 214.675781 336.5625 C 227.917969 342.074219 237.53125 353.125 249.285156 360.984375 C 249.941406 363.964844 250.539062 366.96875 251.113281 370 C 252.839844 359.027344 256.601562 348.316406 255.632812 337.058594 C 254.796875 322.039062 258.847656 306.339844 252.734375 291.996094 C 243.121094 287.6875 234.421875 281.808594 225.671875 276.035156 C 219.246094 271.253906 210.859375 271.699219 203.492188 269.425781 C 186.644531 265.71875 171.597656 251.976562 168.621094 234.632812 C 166.609375 227.605469 167.730469 219.351562 162.714844 213.445312 C 158.378906 207.28125 153.441406 201.324219 150.933594 194.117188 C 145.945312 179.566406 148.53125 162.535156 158.015625 150.359375 C 161.699219 145.164062 166.949219 140.355469 166.6875 133.433594 C 167.054688 114.519531 179.488281 97.070312 196.648438 89.574219 C 205.609375 84.820312 217.207031 88.242188 225.226562 81.582031 M 246.492188 79.59375 C 239.414062 82.363281 234.136719 87.980469 228.886719 93.257812 C 224.601562 98.402344 217.3125 96.625 211.488281 97.203125 C 194.691406 96.601562 178.886719 110.941406 178.3125 127.816406 C 177.527344 135.105469 179.851562 144.328125 172.90625 149.316406 C 160.625 159.347656 153 177.320312 160.757812 192.367188 C 164.050781 201.429688 174.078125 205.6875 177.683594 214.359375 C 178.703125 225.644531 176.902344 238.445312 185.441406 247.433594 C 194.324219 259.917969 210.496094 261.015625 224.445312 260.78125 C 232.984375 265.847656 238.132812 275.878906 248.347656 278.28125 C 262.949219 284.054688 279.40625 276.585938 288.886719 265.117188 C 293.199219 258.324219 301.636719 260.9375 308.324219 260.257812 C 324.886719 260.414062 339.957031 246.4375 341.105469 229.929688 C 342.203125 222.484375 338.835938 213.105469 346.070312 207.988281 C 357.40625 198.398438 365.085938 182.097656 359.289062 167.445312 C 357.144531 158.929688 349.882812 153.523438 344.347656 147.253906 C 339.644531 142.914062 342.019531 136.097656 341.238281 130.507812 C 341.367188 115.539062 330.109375 101.617188 315.714844 98.011719 C 306.339844 95.921875 294.085938 100.519531 287.660156 91.140625 C 278.125 79.152344 260.9375 72.332031 246.492188 79.59375 M 274.339844 340.976562 C 273.710938 341.34375 272.507812 342.097656 271.882812 342.492188 C 286.039062 352.027344 304.011719 350.40625 320.050781 348.160156 C 336.117188 342.832031 354.769531 334.65625 360.882812 317.492188 C 361.980469 317.335938 364.171875 316.996094 365.269531 316.839844 C 354.429688 313.050781 343.378906 308.21875 331.625 309.238281 C 309.445312 311.457031 285.648438 320.496094 274.339844 340.976562 M 171.414062 341.289062 C 172.355469 341.8125 174.261719 342.832031 175.203125 343.351562 C 178.625 358.84375 188.917969 372.269531 202.238281 380.65625 C 215.953125 389.304688 233.5625 395.652344 249.652344 390.558594 C 249.261719 389.878906 248.527344 388.519531 248.136719 387.839844 C 238.601562 356.492188 203.988281 334.183594 171.414062 341.289062 Z M 171.414062 341.289062 "/>
<path style=" stroke:none;fill-rule:nonzero;fill:rgb(90.588235%,32.54902%,20%);fill-opacity:1;" d="M 251.195312 120.164062 C 268.199219 117.210938 286.144531 123.21875 298.476562 135.210938 C 310.933594 145.683594 316.96875 161.828125 318.71875 177.632812 C 317.910156 195.65625 310.179688 214.152344 295.394531 225.125 C 278.230469 238.941406 253.179688 241.164062 233.535156 231.445312 C 224.183594 226.351562 216.449219 218.671875 210.257812 210.101562 C 197.460938 192.46875 197.40625 167.15625 208.953125 148.898438 C 219.089844 134.84375 233.300781 122.253906 251.195312 120.164062 M 246.933594 132.414062 C 216.527344 139.285156 201.902344 178.859375 219.21875 204.304688 C 233.796875 229.773438 273.582031 234.5 293.144531 212.21875 C 314.90625 193.148438 311.09375 154.59375 286.902344 139.285156 C 275.566406 130.664062 260.441406 129.59375 246.933594 132.414062 Z M 246.933594 132.414062 "/>
</g>
</svg>
