<?xml version="1.0" encoding="UTF-8" ?>
<!DOCTYPE svg PUBLIC "-//W3C//DTD SVG 1.1//EN" "http://www.w3.org/Graphics/SVG/1.1/DTD/svg11.dtd">
<svg width="196pt" height="196pt" viewBox="0 0 196 196" version="1.1" xmlns="http://www.w3.org/2000/svg">
<g id="#e75333ff">
<path fill="#e75333" opacity="1.00" d=" M 86.22 31.23 C 90.76 27.19 96.99 24.81 103.07 26.18 C 107.52 26.85 110.74 30.23 114.48 32.37 C 119.57 33.38 125.42 33.73 129.09 37.94 C 133.59 41.89 134.52 48.03 135.46 53.60 C 137.75 57.65 141.65 61.03 142.00 65.96 C 143.11 72.57 138.92 78.13 135.51 83.28 C 134.50 87.95 134.14 93.10 130.96 96.96 C 127.42 101.61 121.54 103.79 115.86 104.17 C 113.05 104.21 111.13 106.48 108.92 107.86 C 106.72 109.50 103.94 110.33 101.97 112.25 C 100.25 115.93 101.24 120.12 101.85 123.94 C 105.81 123.78 108.75 120.91 112.00 119.03 C 119.95 114.14 130.03 113.69 138.81 116.34 C 140.91 117.08 143.92 118.33 143.64 121.04 C 142.97 124.07 140.64 126.41 138.57 128.60 C 133.18 134.15 125.69 137.29 118.05 138.07 C 112.67 138.50 107.54 136.15 102.16 136.32 C 102.13 135.93 102.08 135.16 102.05 134.77 C 100.23 143.03 101.91 151.54 100.66 159.83 C 100.26 160.43 99.45 161.64 99.04 162.24 C 98.21 159.70 97.43 157.14 96.51 154.62 C 89.57 154.18 82.35 153.45 76.37 149.54 C 69.60 144.97 63.54 138.27 62.24 129.94 C 61.77 127.99 63.28 126.48 65.11 126.21 C 70.89 125.12 76.82 126.68 82.18 128.84 C 87.25 130.95 90.93 135.18 95.43 138.19 C 95.68 139.33 95.91 140.48 96.13 141.64 C 96.79 137.44 98.23 133.34 97.86 129.03 C 97.54 123.28 99.09 117.27 96.75 111.78 C 93.07 110.13 89.74 107.88 86.39 105.67 C 83.93 103.84 80.72 104.01 77.90 103.14 C 71.45 101.72 65.69 96.46 64.55 89.82 C 63.78 87.13 64.21 83.97 62.29 81.71 C 60.63 79.35 58.74 77.07 57.78 74.31 C 55.87 68.74 56.86 62.22 60.49 57.56 C 61.90 55.57 63.91 53.73 63.81 51.08 C 63.95 43.84 68.71 37.16 75.28 34.29 C 78.71 32.47 83.15 33.78 86.22 31.23 M 94.36 30.47 C 91.65 31.53 89.63 33.68 87.62 35.70 C 85.98 37.67 83.19 36.99 80.96 37.21 C 74.53 36.98 68.48 42.47 68.26 48.93 C 67.96 51.72 68.85 55.25 66.19 57.16 C 61.49 61.00 58.57 67.88 61.54 73.64 C 62.80 77.11 66.64 78.74 68.02 82.06 C 68.41 86.38 67.72 91.28 70.99 94.72 C 74.39 99.50 80.58 99.92 85.92 99.83 C 89.19 101.77 91.16 105.61 95.07 106.53 C 100.66 108.74 106.96 105.88 110.59 101.49 C 112.24 98.89 115.47 99.89 118.03 99.63 C 124.37 99.69 130.14 94.34 130.58 88.02 C 131.00 85.17 129.71 81.58 132.48 79.62 C 136.82 75.95 139.76 69.71 137.54 64.10 C 136.72 60.84 133.94 58.77 131.82 56.37 C 130.02 54.71 130.93 52.10 130.63 49.96 C 130.68 44.23 126.37 38.90 120.86 37.52 C 117.27 36.72 112.58 38.48 110.12 34.89 C 106.47 30.30 99.89 27.69 94.36 30.47 M 105.02 130.53 C 104.78 130.67 104.32 130.96 104.08 131.11 C 109.50 134.76 116.38 134.14 122.52 133.28 C 128.67 131.24 135.81 128.11 138.15 121.54 C 138.57 121.48 139.41 121.35 139.83 121.29 C 135.68 119.84 131.45 117.99 126.95 118.38 C 118.46 119.23 109.35 122.69 105.02 130.53 M 65.62 130.65 C 65.98 130.85 66.71 131.24 67.07 131.44 C 68.38 137.37 72.32 142.51 77.42 145.72 C 82.67 149.03 89.41 151.46 95.57 149.51 C 95.42 149.25 95.14 148.73 94.99 148.47 C 91.34 136.47 78.09 127.93 65.62 130.65 Z" />
<path fill="#e75333" opacity="1.00" d=" M 96.16 46.00 C 102.67 44.87 109.54 47.17 114.26 51.76 C 119.03 55.77 121.34 61.95 122.01 68.00 C 121.70 74.90 118.74 81.98 113.08 86.18 C 106.51 91.47 96.92 92.32 89.40 88.60 C 85.82 86.65 82.86 83.71 80.49 80.43 C 75.59 73.68 75.57 63.99 79.99 57.00 C 83.87 51.62 89.31 46.80 96.16 46.00 M 94.53 50.69 C 82.89 53.32 77.29 68.47 83.92 78.21 C 89.50 87.96 104.73 89.77 112.22 81.24 C 120.55 73.94 119.09 59.18 109.83 53.32 C 105.49 50.02 99.70 49.61 94.53 50.69 Z" />
</g>
</svg>
